<svg viewBox="0 0 100 100" xmlns="http://www.w3.org/2000/svg">
    <defs>
      <filter id="glow">
        <feGaussianBlur stdDeviation="2" result="coloredBlur"/>
        <feMerge>
          <feMergeNode in="coloredBlur"/>
          <feMergeNode in="SourceGraphic"/>
        </feMerge>
      </filter>
      
      <radialGradient id="sphereGradient" cx="50%" cy="50%" r="50%">
        <stop offset="0%" stop-color="#9d00ff"/>
        <stop offset="70%" stop-color="#6a0dad"/>
        <stop offset="100%" stop-color="#4b0082"/>
      </radialGradient>
      
      <linearGradient id="toxicGradient" x1="0%" y1="0%" x2="100%" y2="100%">
        <stop offset="0%" stop-color="#39FF14"/>
        <stop offset="100%" stop-color="#00FF00"/>
      </linearGradient>
  
      <linearGradient id="orangeGradient" x1="0%" y1="0%" x2="100%" y2="100%">
        <stop offset="0%" stop-color="#FF8C00"/>
        <stop offset="100%" stop-color="#FFA500"/>
      </linearGradient>
    </defs>
  
    <!-- Tech circuit lines (background) -->
    <path d="M 30 50 L 10 50 M 70 50 L 90 50" 
      stroke="url(#orangeGradient)" 
      stroke-width="2"
      filter="url(#glow)"/>
  
    <!-- Main sphere -->
    <circle cx="50" cy="50" r="40" 
      fill="url(#sphereGradient)" 
      filter="url(#glow)"
      stroke="#39FF14"
      stroke-width="1.5"
      fill-opacity="0.95"/>
  
    <!-- Matrix rain effect (between sphere and face elements) -->
    <g fill="#39FF14" font-family="monospace" fill-opacity="0.3">
      <!-- Left side -->
      <text x="25" y="35" font-size="6">10</text>
      <text x="25" y="45" font-size="6">01</text>
      <text x="25" y="55" font-size="6">11</text>
      <text x="25" y="65" font-size="6">00</text>
  
      <!-- Center-left -->
      <text x="40" y="30" font-size="6">01</text>
      <text x="40" y="40" font-size="6">11</text>
      <text x="40" y="50" font-size="6">00</text>
      <text x="40" y="60" font-size="6">10</text>
      <text x="40" y="70" font-size="6">01</text>
  
      <!-- Center -->
      <text x="55" y="35" font-size="6">11</text>
      <text x="55" y="45" font-size="6">00</text>
      <text x="55" y="55" font-size="6">10</text>
      <text x="55" y="65" font-size="6">01</text>
  
      <!-- Center-right -->
      <text x="70" y="30" font-size="6">00</text>
      <text x="70" y="40" font-size="6">11</text>
      <text x="70" y="50" font-size="6">01</text>
      <text x="70" y="60" font-size="6">10</text>
      <text x="70" y="70" font-size="6">11</text>
    </g>
  
    <!-- Face elements (on top) -->
    <g fill="url(#toxicGradient)" filter="url(#glow)">
      <circle cx="35" cy="40" r="8"/> <!-- Left eye -->
      <circle cx="65" cy="40" r="8"/> <!-- Right eye -->
      <circle cx="50" cy="65" r="8"/> <!-- Mouth -->
    </g>
  
    <!-- Circuit dots -->
    <g fill="#FFA500" filter="url(#glow)">
      <circle cx="35" cy="40" r="2"/>
      <circle cx="65" cy="40" r="2"/>
      <circle cx="50" cy="65" r="2"/>
    </g>
  
    <!-- Tech details -->
    <g stroke="#39FF14" stroke-width="1" fill="none">
      <path d="M 20 30 L 30 30 L 35 35"/>
      <path d="M 80 30 L 70 30 L 65 35"/>
      <path d="M 50 85 L 50 75"/>
    </g>
  
    <!-- Orange accent lines -->
    <g stroke="url(#orangeGradient)" stroke-width="0.75" fill="none">
      <path d="M 25 70 L 35 70 L 40 65" filter="url(#glow)"/>
      <path d="M 75 70 L 65 70 L 60 65" filter="url(#glow)"/>
    </g>
  </svg>